<svg width="160" height="48" viewBox="0 0 160 48" fill="none" xmlns="http://www.w3.org/2000/svg">
<path d="M24 48C10.7467 48 0 37.2533 0 24H24V48Z" fill="#FF6B00"/>
<path d="M0 0C13.2533 0 24 10.7467 24 24H0V0Z" fill="#FF6B00"/>
<path d="M24 48C37.2533 48 48 37.2533 48 24H24V48Z" fill="#FF6B00"/>
<path d="M48 24C48 10.7467 37.2533 0 24 0V24H48Z" fill="#FF6B00"/>
<path d="M63.5227 39.5V10.4091H73.6932C75.7197 10.4091 77.3911 10.7595 78.7074 11.4602C80.0237 12.1515 81.0038 13.0843 81.6477 14.2585C82.2917 15.4233 82.6136 16.7159 82.6136 18.1364C82.6136 19.3864 82.3911 20.4186 81.946 21.233C81.5104 22.0473 80.9328 22.6913 80.2131 23.1648C79.5028 23.6383 78.7311 23.9886 77.8977 24.2159V24.5C78.7879 24.5568 79.6828 24.8693 80.5824 25.4375C81.482 26.0057 82.2348 26.8201 82.8409 27.8807C83.447 28.9413 83.75 30.2386 83.75 31.7727C83.75 33.2311 83.4186 34.5426 82.7557 35.7074C82.0928 36.8722 81.0464 37.7955 79.6165 38.4773C78.1866 39.1591 76.3258 39.5 74.0341 39.5H63.5227ZM67.0455 36.375H74.0341C76.3352 36.375 77.9688 35.9299 78.9347 35.0398C79.91 34.1402 80.3977 33.0511 80.3977 31.7727C80.3977 30.7879 80.1468 29.8788 79.6449 29.0455C79.143 28.2027 78.428 27.5303 77.5 27.0284C76.572 26.517 75.4735 26.2614 74.2045 26.2614H67.0455V36.375ZM67.0455 23.1932H73.5795C74.6402 23.1932 75.5966 22.9848 76.4489 22.5682C77.3106 22.1515 77.9924 21.5644 78.4943 20.8068C79.0057 20.0492 79.2614 19.1591 79.2614 18.1364C79.2614 16.858 78.8163 15.7737 77.9261 14.8835C77.036 13.9839 75.625 13.5341 73.6932 13.5341H67.0455V23.1932ZM95.5043 40.0114C94.1217 40.0114 92.867 39.7509 91.7401 39.2301C90.6132 38.6998 89.7183 37.9375 89.0554 36.9432C88.3925 35.9394 88.0611 34.7273 88.0611 33.3068C88.0611 32.0568 88.3073 31.0436 88.7997 30.267C89.2921 29.4811 89.9503 28.8655 90.7741 28.4205C91.598 27.9754 92.5071 27.6439 93.5014 27.4261C94.5052 27.1989 95.5137 27.0189 96.527 26.8864C97.8527 26.7159 98.9276 26.5881 99.7514 26.5028C100.585 26.4081 101.191 26.2519 101.57 26.0341C101.958 25.8163 102.152 25.4375 102.152 24.8977V24.7841C102.152 23.3826 101.768 22.2936 101.001 21.517C100.244 20.7405 99.0933 20.3523 97.5497 20.3523C95.9493 20.3523 94.6946 20.7027 93.7855 21.4034C92.8764 22.1042 92.2372 22.8523 91.8679 23.6477L88.6861 22.5114C89.2543 21.1856 90.0118 20.1534 90.9588 19.4148C91.9152 18.6667 92.9569 18.1458 94.0838 17.8523C95.2202 17.5492 96.3376 17.3977 97.4361 17.3977C98.1368 17.3977 98.9418 17.483 99.8509 17.6534C100.769 17.8144 101.655 18.1506 102.507 18.6619C103.369 19.1733 104.084 19.9451 104.652 20.9773C105.22 22.0095 105.504 23.392 105.504 25.125V39.5H102.152V36.5455H101.982C101.754 37.0189 101.375 37.5256 100.845 38.0653C100.315 38.6051 99.6094 39.0644 98.7287 39.4432C97.848 39.822 96.7732 40.0114 95.5043 40.0114ZM96.0156 37C97.3414 37 98.4588 36.7396 99.3679 36.2188C100.286 35.6979 100.978 35.0256 101.442 34.2017C101.915 33.3778 102.152 32.5114 102.152 31.6023V28.5341C102.01 28.7045 101.697 28.8608 101.214 29.0028C100.741 29.1354 100.192 29.2538 99.5668 29.358C98.9512 29.4527 98.3499 29.5379 97.7628 29.6136C97.1851 29.6799 96.7164 29.7367 96.3565 29.7841C95.4853 29.8977 94.6709 30.0824 93.9134 30.3381C93.1652 30.5843 92.5592 30.9583 92.0952 31.4602C91.6406 31.9527 91.4134 32.625 91.4134 33.4773C91.4134 34.642 91.8442 35.5227 92.706 36.1193C93.5772 36.7064 94.6804 37 96.0156 37ZM113.001 47.6818C112.433 47.6818 111.926 47.6345 111.481 47.5398C111.036 47.4545 110.728 47.3693 110.558 47.2841L111.41 44.3295C112.224 44.5379 112.944 44.6136 113.569 44.5568C114.194 44.5 114.748 44.2206 115.231 43.7188C115.723 43.2263 116.173 42.4261 116.58 41.3182L117.205 39.6136L109.137 17.6818H112.773L118.796 35.0682H119.023L125.046 17.6818H128.683L119.421 42.6818C119.004 43.8087 118.488 44.7415 117.873 45.4801C117.257 46.2282 116.542 46.7822 115.728 47.142C114.923 47.5019 114.014 47.6818 113.001 47.6818ZM142.596 17.6818V20.5227H131.289V17.6818H142.596ZM134.585 12.4545H137.937V33.25C137.937 34.197 138.074 34.9072 138.349 35.3807C138.633 35.8447 138.993 36.1572 139.428 36.3182C139.873 36.4697 140.342 36.5455 140.835 36.5455C141.204 36.5455 141.507 36.5265 141.744 36.4886C141.98 36.4413 142.17 36.4034 142.312 36.375L142.994 39.3864C142.766 39.4716 142.449 39.5568 142.042 39.642C141.635 39.7367 141.119 39.7841 140.494 39.7841C139.547 39.7841 138.619 39.5805 137.71 39.1733C136.81 38.7661 136.062 38.1458 135.465 37.3125C134.878 36.4792 134.585 35.428 134.585 34.1591V12.4545ZM147.638 39.5V17.6818H150.991V39.5H147.638ZM149.343 14.0455C148.69 14.0455 148.126 13.8229 147.653 13.3778C147.189 12.9328 146.957 12.3977 146.957 11.7727C146.957 11.1477 147.189 10.6127 147.653 10.1676C148.126 9.72254 148.69 9.5 149.343 9.5C149.996 9.5 150.555 9.72254 151.019 10.1676C151.493 10.6127 151.729 11.1477 151.729 11.7727C151.729 12.3977 151.493 12.9328 151.019 13.3778C150.555 13.8229 149.996 14.0455 149.343 14.0455Z" fill="white"/>
</svg>
