<svg width="114" height="35" viewBox="0 0 114 35" fill="none" xmlns="http://www.w3.org/2000/svg">
<path d="M17 34C7.61222 34 0 26.3878 0 17H17V34Z" fill="#FF6B00"/>
<path d="M0 0C9.38778 0 17 7.61222 17 17H0V0Z" fill="#FF6B00"/>
<path d="M17 34C26.3878 34 34 26.3878 34 17H17V34Z" fill="#FF6B00"/>
<path d="M34 17C34 7.61222 26.3878 0 17 0V17H34Z" fill="#FF6B00"/>
<path d="M43.68 27.5V7.9H50.442C51.4127 7.9 52.2947 8.10067 53.088 8.502C53.8907 8.894 54.5253 9.468 54.992 10.224C55.4587 10.98 55.692 11.8853 55.692 12.94C55.692 13.5093 55.594 14.06 55.398 14.592C55.2113 15.1147 54.95 15.5673 54.614 15.95C54.2873 16.3233 53.914 16.5753 53.494 16.706C54.082 16.8553 54.5813 17.1213 54.992 17.504C55.4027 17.8773 55.734 18.316 55.986 18.82C56.2473 19.324 56.434 19.8513 56.546 20.402C56.658 20.9527 56.714 21.4847 56.714 21.998C56.714 23.0807 56.4667 24.0373 55.972 24.868C55.4867 25.6893 54.8333 26.3333 54.012 26.8C53.1907 27.2667 52.2853 27.5 51.296 27.5H43.68ZM46.032 25.428H51.086C51.73 25.428 52.3133 25.2647 52.836 24.938C53.368 24.602 53.7927 24.1447 54.11 23.566C54.4273 22.9873 54.586 22.334 54.586 21.606C54.586 20.962 54.4273 20.3553 54.11 19.786C53.7927 19.2073 53.368 18.7407 52.836 18.386C52.3133 18.0313 51.73 17.854 51.086 17.854H46.032V25.428ZM46.032 15.824H50.218C51.0767 15.824 51.8093 15.572 52.416 15.068C53.032 14.5547 53.34 13.8407 53.34 12.926C53.34 11.9367 53.032 11.1993 52.416 10.714C51.8093 10.2193 51.0767 9.972 50.218 9.972H46.032V15.824ZM70.1665 13.5H72.5185V27.5H70.1665L70.0685 25.134C69.6298 25.946 69.0231 26.604 68.2485 27.108C67.4831 27.612 66.5685 27.864 65.5045 27.864C64.4778 27.864 63.5165 27.6727 62.6205 27.29C61.7245 26.898 60.9311 26.3613 60.2405 25.68C59.5591 24.9893 59.0271 24.196 58.6445 23.3C58.2618 22.404 58.0705 21.438 58.0705 20.402C58.0705 19.4033 58.2571 18.4607 58.6305 17.574C59.0038 16.6873 59.5218 15.9127 60.1845 15.25C60.8565 14.578 61.6311 14.0553 62.5085 13.682C63.3858 13.2993 64.3285 13.108 65.3365 13.108C66.4378 13.108 67.4038 13.3693 68.2345 13.892C69.0651 14.4053 69.7371 15.0727 70.2505 15.894L70.1665 13.5ZM65.4625 25.582C66.3865 25.582 67.1845 25.358 67.8565 24.91C68.5378 24.4527 69.0605 23.8367 69.4245 23.062C69.7978 22.2873 69.9845 21.4333 69.9845 20.5C69.9845 19.548 69.7978 18.6893 69.4245 17.924C69.0511 17.1493 68.5238 16.538 67.8425 16.09C67.1705 15.6327 66.3771 15.404 65.4625 15.404C64.5385 15.404 63.6985 15.6327 62.9425 16.09C62.1865 16.5473 61.5845 17.1633 61.1365 17.938C60.6978 18.7033 60.4785 19.5573 60.4785 20.5C60.4785 21.4427 60.7071 22.3013 61.1645 23.076C61.6218 23.8413 62.2285 24.4527 62.9845 24.91C63.7405 25.358 64.5665 25.582 65.4625 25.582ZM84.4692 13.5H86.9612L79.3032 34.5H76.8112L79.3452 27.5L74.3192 13.5H76.8952L80.5212 24.266L84.4692 13.5ZM96.7601 15.852H93.5821L93.5681 27.5H91.2161L91.2301 15.852H88.8221V13.5H91.2301L91.2161 9.104H93.5681L93.5821 13.5H96.7601V15.852ZM99.1331 13.5H101.485V27.5H99.1331V13.5ZM100.337 11.218C99.9638 11.218 99.6511 11.0967 99.3991 10.854C99.1471 10.6113 99.0211 10.308 99.0211 9.944C99.0211 9.58 99.1471 9.27667 99.3991 9.034C99.6511 8.79133 99.9591 8.67 100.323 8.67C100.687 8.67 100.995 8.79133 101.247 9.034C101.499 9.27667 101.625 9.58 101.625 9.944C101.625 10.308 101.499 10.6113 101.247 10.854C101.004 11.0967 100.701 11.218 100.337 11.218Z" fill="#141414"/>
</svg>
