<svg width="114" height="34" viewBox="0 0 114 34" fill="none" xmlns="http://www.w3.org/2000/svg">
<path d="M17 34C7.61222 34 0 26.3878 0 17H17V34Z" fill="#FF6B00"/>
<path d="M0 0C9.38778 0 17 7.61222 17 17H0V0Z" fill="#FF6B00"/>
<path d="M17 34C26.3878 34 34 26.3878 34 17H17V34Z" fill="#FF6B00"/>
<path d="M34 17C34 7.61222 26.3878 0 17 0V17H34Z" fill="#FF6B00"/>
<path d="M40.44 25.5V8.7H46.236C47.068 8.7 47.824 8.872 48.504 9.216C49.192 9.552 49.736 10.044 50.136 10.692C50.536 11.34 50.736 12.116 50.736 13.02C50.736 13.508 50.652 13.98 50.484 14.436C50.324 14.884 50.1 15.272 49.812 15.6C49.532 15.92 49.212 16.136 48.852 16.248C49.356 16.376 49.784 16.604 50.136 16.932C50.488 17.252 50.772 17.628 50.988 18.06C51.212 18.492 51.372 18.944 51.468 19.416C51.564 19.888 51.612 20.344 51.612 20.784C51.612 21.712 51.4 22.532 50.976 23.244C50.56 23.948 50 24.5 49.296 24.9C48.592 25.3 47.816 25.5 46.968 25.5H40.44ZM42.456 23.724H46.788C47.34 23.724 47.84 23.584 48.288 23.304C48.744 23.016 49.108 22.624 49.38 22.128C49.652 21.632 49.788 21.072 49.788 20.448C49.788 19.896 49.652 19.376 49.38 18.888C49.108 18.392 48.744 17.992 48.288 17.688C47.84 17.384 47.34 17.232 46.788 17.232H42.456V23.724ZM42.456 15.492H46.044C46.78 15.492 47.408 15.276 47.928 14.844C48.456 14.404 48.72 13.792 48.72 13.008C48.72 12.16 48.456 11.528 47.928 11.112C47.408 10.688 46.78 10.476 46.044 10.476H42.456V15.492ZM63.1427 13.5H65.1587V25.5H63.1427L63.0587 23.472C62.6827 24.168 62.1627 24.732 61.4987 25.164C60.8427 25.596 60.0587 25.812 59.1467 25.812C58.2667 25.812 57.4427 25.648 56.6747 25.32C55.9067 24.984 55.2267 24.524 54.6347 23.94C54.0507 23.348 53.5947 22.668 53.2667 21.9C52.9387 21.132 52.7747 20.304 52.7747 19.416C52.7747 18.56 52.9347 17.752 53.2547 16.992C53.5747 16.232 54.0187 15.568 54.5867 15C55.1627 14.424 55.8267 13.976 56.5787 13.656C57.3307 13.328 58.1387 13.164 59.0027 13.164C59.9467 13.164 60.7747 13.388 61.4867 13.836C62.1987 14.276 62.7747 14.848 63.2147 15.552L63.1427 13.5ZM59.1107 23.856C59.9027 23.856 60.5867 23.664 61.1627 23.28C61.7467 22.888 62.1947 22.36 62.5067 21.696C62.8267 21.032 62.9867 20.3 62.9867 19.5C62.9867 18.684 62.8267 17.948 62.5067 17.292C62.1867 16.628 61.7347 16.104 61.1507 15.72C60.5747 15.328 59.8947 15.132 59.1107 15.132C58.3187 15.132 57.5987 15.328 56.9507 15.72C56.3027 16.112 55.7867 16.64 55.4027 17.304C55.0267 17.96 54.8387 18.692 54.8387 19.5C54.8387 20.308 55.0347 21.044 55.4267 21.708C55.8187 22.364 56.3387 22.888 56.9867 23.28C57.6347 23.664 58.3427 23.856 59.1107 23.856ZM75.4022 13.5H77.5382L70.9742 31.5H68.8382L71.0102 25.5L66.7022 13.5H68.9102L72.0182 22.728L75.4022 13.5ZM85.9373 15.516H83.2133L83.2013 25.5H81.1853L81.1973 15.516H79.1333V13.5H81.1973L81.1853 9.732H83.2013L83.2133 13.5H85.9373V15.516ZM87.9713 13.5H89.9873V25.5H87.9713V13.5ZM89.0033 11.544C88.6833 11.544 88.4153 11.44 88.1993 11.232C87.9833 11.024 87.8753 10.764 87.8753 10.452C87.8753 10.14 87.9833 9.88 88.1993 9.672C88.4153 9.464 88.6793 9.36 88.9913 9.36C89.3033 9.36 89.5673 9.464 89.7833 9.672C89.9993 9.88 90.1073 10.14 90.1073 10.452C90.1073 10.764 89.9993 11.024 89.7833 11.232C89.5753 11.44 89.3153 11.544 89.0033 11.544Z" fill="white"/>
</svg>
