<svg width="160" height="51" viewBox="0 0 160 51" fill="none" xmlns="http://www.w3.org/2000/svg">
<path d="M24 50.0208C10.7467 50.0208 0 38.8217 0 25.0104H24V50.0208Z" fill="#FF6B00"/>
<path d="M0 0C13.2533 0 24 11.1991 24 25.0104H0V0Z" fill="#FF6B00"/>
<path d="M24 50.0208C37.2533 50.0208 48 38.8217 48 25.0104H24V50.0208Z" fill="#FF6B00"/>
<path d="M48 25.0104C48 11.1991 37.2533 0 24 0V25.0104H48Z" fill="#FF6B00"/>
<path d="M62.5227 38V8.90909H72.6932C74.7197 8.90909 76.3911 9.25947 77.7074 9.96023C79.0237 10.6515 80.0038 11.5843 80.6477 12.7585C81.2917 13.9233 81.6136 15.2159 81.6136 16.6364C81.6136 17.8864 81.3911 18.9186 80.946 19.733C80.5104 20.5473 79.9328 21.1913 79.2131 21.6648C78.5028 22.1383 77.7311 22.4886 76.8977 22.7159V23C77.7879 23.0568 78.6828 23.3693 79.5824 23.9375C80.482 24.5057 81.2348 25.3201 81.8409 26.3807C82.447 27.4413 82.75 28.7386 82.75 30.2727C82.75 31.7311 82.4186 33.0426 81.7557 34.2074C81.0928 35.3722 80.0464 36.2955 78.6165 36.9773C77.1866 37.6591 75.3258 38 73.0341 38H62.5227ZM66.0455 34.875H73.0341C75.3352 34.875 76.9688 34.4299 77.9347 33.5398C78.91 32.6402 79.3977 31.5511 79.3977 30.2727C79.3977 29.2879 79.1468 28.3788 78.6449 27.5455C78.143 26.7027 77.428 26.0303 76.5 25.5284C75.572 25.017 74.4735 24.7614 73.2045 24.7614H66.0455V34.875ZM66.0455 21.6932H72.5795C73.6402 21.6932 74.5966 21.4848 75.4489 21.0682C76.3106 20.6515 76.9924 20.0644 77.4943 19.3068C78.0057 18.5492 78.2614 17.6591 78.2614 16.6364C78.2614 15.358 77.8163 14.2737 76.9261 13.3835C76.036 12.4839 74.625 12.0341 72.6932 12.0341H66.0455V21.6932ZM94.5043 38.5114C93.1217 38.5114 91.867 38.2509 90.7401 37.7301C89.6132 37.1998 88.7183 36.4375 88.0554 35.4432C87.3925 34.4394 87.0611 33.2273 87.0611 31.8068C87.0611 30.5568 87.3073 29.5436 87.7997 28.767C88.2921 27.9811 88.9503 27.3655 89.7741 26.9205C90.598 26.4754 91.5071 26.1439 92.5014 25.9261C93.5052 25.6989 94.5137 25.5189 95.527 25.3864C96.8527 25.2159 97.9276 25.0881 98.7514 25.0028C99.5848 24.9081 100.191 24.7519 100.57 24.5341C100.958 24.3163 101.152 23.9375 101.152 23.3977V23.2841C101.152 21.8826 100.768 20.7936 100.001 20.017C99.2438 19.2405 98.0933 18.8523 96.5497 18.8523C94.9493 18.8523 93.6946 19.2027 92.7855 19.9034C91.8764 20.6042 91.2372 21.3523 90.8679 22.1477L87.6861 21.0114C88.2543 19.6856 89.0118 18.6534 89.9588 17.9148C90.9152 17.1667 91.9569 16.6458 93.0838 16.3523C94.2202 16.0492 95.3376 15.8977 96.4361 15.8977C97.1368 15.8977 97.9418 15.983 98.8509 16.1534C99.7694 16.3144 100.655 16.6506 101.507 17.1619C102.369 17.6733 103.084 18.4451 103.652 19.4773C104.22 20.5095 104.504 21.892 104.504 23.625V38H101.152V35.0455H100.982C100.754 35.5189 100.375 36.0256 99.8452 36.5653C99.3149 37.1051 98.6094 37.5644 97.7287 37.9432C96.848 38.322 95.7732 38.5114 94.5043 38.5114ZM95.0156 35.5C96.3414 35.5 97.4588 35.2396 98.3679 34.7188C99.2865 34.1979 99.9777 33.5256 100.442 32.7017C100.915 31.8778 101.152 31.0114 101.152 30.1023V27.0341C101.01 27.2045 100.697 27.3608 100.214 27.5028C99.741 27.6354 99.1918 27.7538 98.5668 27.858C97.9512 27.9527 97.3499 28.0379 96.7628 28.1136C96.1851 28.1799 95.7164 28.2367 95.3565 28.2841C94.4853 28.3977 93.6709 28.5824 92.9134 28.8381C92.1652 29.0843 91.5592 29.4583 91.0952 29.9602C90.6406 30.4527 90.4134 31.125 90.4134 31.9773C90.4134 33.142 90.8442 34.0227 91.706 34.6193C92.5772 35.2064 93.6804 35.5 95.0156 35.5ZM112.001 46.1818C111.433 46.1818 110.926 46.1345 110.481 46.0398C110.036 45.9545 109.728 45.8693 109.558 45.7841L110.41 42.8295C111.224 43.0379 111.944 43.1136 112.569 43.0568C113.194 43 113.748 42.7206 114.231 42.2188C114.723 41.7263 115.173 40.9261 115.58 39.8182L116.205 38.1136L108.137 16.1818H111.773L117.796 33.5682H118.023L124.046 16.1818H127.683L118.421 41.1818C118.004 42.3087 117.488 43.2415 116.873 43.9801C116.257 44.7282 115.542 45.2822 114.728 45.642C113.923 46.0019 113.014 46.1818 112.001 46.1818ZM141.596 16.1818V19.0227H130.289V16.1818H141.596ZM133.585 10.9545H136.937V31.75C136.937 32.697 137.074 33.4072 137.349 33.8807C137.633 34.3447 137.993 34.6572 138.428 34.8182C138.873 34.9697 139.342 35.0455 139.835 35.0455C140.204 35.0455 140.507 35.0265 140.744 34.9886C140.98 34.9413 141.17 34.9034 141.312 34.875L141.994 37.8864C141.766 37.9716 141.449 38.0568 141.042 38.142C140.635 38.2367 140.119 38.2841 139.494 38.2841C138.547 38.2841 137.619 38.0805 136.71 37.6733C135.81 37.2661 135.062 36.6458 134.465 35.8125C133.878 34.9792 133.585 33.928 133.585 32.6591V10.9545ZM146.638 38V16.1818H149.991V38H146.638ZM148.343 12.5455C147.69 12.5455 147.126 12.3229 146.653 11.8778C146.189 11.4328 145.957 10.8977 145.957 10.2727C145.957 9.64773 146.189 9.11269 146.653 8.66761C147.126 8.22254 147.69 8 148.343 8C148.996 8 149.555 8.22254 150.019 8.66761C150.493 9.11269 150.729 9.64773 150.729 10.2727C150.729 10.8977 150.493 11.4328 150.019 11.8778C149.555 12.3229 148.996 12.5455 148.343 12.5455Z" fill="black"/>
</svg>
